<svg xmlns="http://www.w3.org/2000/svg" width="48" height="52" viewBox="10 0 48 52" role="img" aria-hidden="true">
  <defs>
    <mask id="paste-icon-cutouts" maskUnits="userSpaceOnUse" x="10" y="0" width="48" height="52">
      <rect x="10" y="0" width="48" height="52" fill="white" />
      <path fill="black" d="M38.5965 7.12947L43.4577 7.09781C43.8265 10.2337 43.6706 16.3647 43.6754 19.6661C43.7219 26.5276 43.7049 33.3893 43.6246 40.2504C36.8774 40.3825 29.8317 40.2762 23.0625 40.2684C21.3349 40.2612 19.6075 40.2209 17.8815 40.1473C17.696 34.6854 17.6586 25.8878 17.8842 20.5079C33.0338 20.1921 31.2534 23.3879 31.2887 7.20065L38.5965 7.12947Z" />
      <path fill="black" d="M27.8941 8.40798C28.3112 9.22292 28.1816 16.2082 28.1794 17.5125L20.0193 17.4925L19.8382 17.3489L19.8235 16.9423C21.3497 14.648 25.7255 10.531 27.8941 8.40798Z" />
    </mask>
  </defs>
  <g mask="url(#paste-icon-cutouts)" fill="#1f1f20">
    <path d="M27.7816 4.07521C31.6429 3.81612 40.7262 3.70962 44.5899 4.54325C46.6961 4.99766 46.204 7.54357 46.875 8.95302C47.9721 9.62683 48.2103 8.93335 49.7071 9.35011C50.1986 10.1015 50.096 9.7811 50.1391 10.6727C49.9853 10.9856 49.8404 11.3979 49.5845 11.5858L49.5483 11.6122C49.0957 11.945 47.3981 11.92 46.7496 11.9404C46.6907 17.7284 46.6946 24.2323 46.7674 29.9661C46.9593 45.0832 47.0456 43.4753 32.8579 43.2958C29.7923 43.2981 27.1959 43.2555 24.1399 43.5334C24.1546 43.7935 24.1666 44.0538 24.1761 44.3142C24.2012 45.0289 24.3106 46.0227 23.8167 46.5517C23.0194 46.8503 22.8353 46.9008 21.9963 46.758C21.4008 45.6542 22.2375 44.6715 21.7314 43.5661C18.4455 42.3889 17.7614 44.5841 15.0458 40.8294C14.7775 37.6889 14.8983 33.6204 14.8984 30.3909C14.8985 26.1787 14.7914 21.5055 15.0141 17.3285C19.2842 13.1098 23.2285 7.98312 27.7816 4.07521Z" />
    <path d="M45.1157 46.2802C46.6251 46.3118 48.7266 45.9121 49.835 46.6515C50.3525 47.6399 50.1673 47.7913 50.1257 48.9896C48.9093 48.9547 45.5028 49.5542 44.9689 48.3794L44.9517 48.3411C44.7454 47.8871 45.0128 46.8104 45.1157 46.2802Z" />
    <path d="M51.7115 39.7404C52.4374 39.7281 53.1717 39.6569 53.8334 39.9518C54.0486 40.8233 54.1499 44.7695 53.9191 45.6015C53.2458 45.6026 52.9022 45.572 52.244 45.486C51.1424 44.2343 51.7197 41.8977 51.7115 39.7404Z" />
    <path d="M51.7508 31.2826C52.6114 31.23 53.0078 31.1783 53.8474 31.3964C54.0805 32.1705 54.1061 36.1479 53.9719 36.9991C51.7152 37.1191 51.3576 36.8641 51.6176 34.3848C51.7192 33.415 51.7323 32.2695 51.7508 31.2826Z" />
    <path d="M52.5408 13.0573C52.6599 13.0922 53.5268 13.3359 53.5469 13.3699C54.3782 14.7803 54.4646 18.3461 53.3563 19.5069C53.1815 19.4679 52.2069 19.281 52.1593 19.1936C51.2934 17.6042 51.25 14.335 52.5408 13.0573Z" />
    <path d="M26.7093 46.3378C28.3452 46.3349 31.2939 45.9484 31.9895 47.5696C31.8468 48.1388 31.813 48.2938 31.4692 48.7663C30.0138 48.924 27.8288 49.4253 26.7155 48.5813C26.3374 47.6011 26.5348 47.4754 26.7093 46.3378Z" />
    <path d="M36.0296 46.4165C37.6679 46.5048 39.6788 45.988 40.9095 46.7319C41.3648 47.626 41.1563 47.749 41.0173 48.8953C39.3845 49.0245 37.6852 49.4193 36.335 48.676C35.7935 47.7516 35.9885 47.6052 36.0296 46.4165Z" />
    <path d="M51.7419 22.5423C52.8793 22.5636 53.0341 22.3635 53.749 22.9518C54.4398 24.5921 54.0404 26.4677 53.8901 28.3114C51.0388 28.6982 51.6902 27.133 51.7238 24.9237C51.7356 24.1491 51.7414 23.3212 51.7419 22.5423Z" />
  </g>
</svg>
